<svg version="1.1" id="Calque_1" xmlns="http://www.w3.org/2000/svg" xmlns:xlink="http://www.w3.org/1999/xlink" x="0px" y="0px" viewBox="0 0 174.3 52.2" style="enable-background:new 0 0 174.3 52.2;" xml:space="preserve">
                    <style type="text/css">
                        .st00, .svc { transition: fill .2s ease-out; }
						.st00 { fill: #38B485; }
						.svc { fill: #212529; }
                    </style>
                    <g>
                        <path class="svc" d="M18.1,20.1l-4.8-13l-5,13H18.1z M31.6,32.2c0.5,0.5,1.1,0.7,1.6,0.8v1H18.5v-1c1.2-0.1,2.1-0.2,2.6-0.5
                            c0.5-0.2,0.8-0.7,0.8-1.3c0-0.6-0.2-1.3-0.6-2.3L18.4,21H8l-1.2,3.3c-0.9,2.3-1.3,4.1-1.3,5.3c0,1.2,0.4,2,1.1,2.5
                            c0.7,0.5,1.8,0.7,3.2,0.8v1H0v-1c1.6-0.3,2.9-2,4.1-5L15,0h3.5l11.6,29.8C30.5,30.9,31,31.7,31.6,32.2"></path>
                        <path class="svc" d="M48.1,31.3c0.8-0.8,1.3-1.8,1.5-3.1V11.4c-0.8-1.1-2-1.6-3.5-1.6c-1.7,0-3,1-3.9,2.9c-0.9,2-1.4,4.9-1.3,8.7
                            c0,3.9,0.3,6.7,1.1,8.5c0.8,1.7,1.9,2.6,3.4,2.6C46.3,32.5,47.3,32.1,48.1,31.3 M57.1,31.8c0.4,0.7,1.3,1,2.4,1v1.1h-10v-3.7
                            c-1.1,2.9-3.2,4.3-6.2,4.3c-3,0-5.4-1.1-7.2-3.3c-1.8-2.2-2.7-5.5-2.6-9.9c0-2.8,0.5-5.2,1.4-7.1c0.9-1.9,2.2-3.4,3.8-4.4
                            c1.6-1,3.5-1.5,5.5-1.5c2.3,0,4.1,0.6,5.3,1.8V5.5c0-1.5-0.2-2.5-0.7-3.2c-0.5-0.7-1.3-1-2.4-1V0h10v28.6
                            C56.5,30.1,56.7,31.2,57.1,31.8"></path>
                        <path class="svc" d="M74.3,29.2v-9.8c-0.4,0.6-1.2,1.3-2.5,2.1c-1.3,0.8-2.2,1.6-2.8,2.4c-0.6,0.8-1,2-1,3.5c0,1.3,0.3,2.3,0.8,2.9
                            c0.5,0.6,1.3,0.9,2.2,0.9C72.3,31.2,73.4,30.5,74.3,29.2 M62.9,32.6c-1-1.1-1.5-2.4-1.5-4.2c0-1.4,0.4-2.6,1.1-3.6
                            c0.8-0.9,1.7-1.7,2.7-2.2c1.1-0.5,2.4-1.1,4.1-1.6c1.8-0.6,3.1-1.2,3.9-1.7c0.8-0.5,1.2-1.2,1.2-2v-3.7c0-1.3-0.3-2.4-0.9-3.1
                            c-0.6-0.8-1.6-1.1-2.9-1.1c-1.5,0-2.7,0.4-3.5,1.2c0.9,0.3,1.6,0.8,2.1,1.4c0.5,0.6,0.7,1.4,0.7,2.3c0,1.1-0.4,2-1.1,2.6
                            c-0.7,0.6-1.6,1-2.7,1c-1.1,0-2-0.4-2.6-1.1c-0.6-0.7-0.9-1.6-0.9-2.6c0-0.9,0.2-1.7,0.7-2.3c0.4-0.6,1.1-1.2,2-1.8
                            c0.9-0.5,1.9-0.9,3.2-1.2c1.3-0.3,2.7-0.4,4.2-0.4c1.6,0,2.9,0.2,4.1,0.5c1.2,0.3,2.1,0.9,2.9,1.6c0.7,0.7,1.2,1.6,1.4,2.6
                            c0.2,1,0.4,2.4,0.4,4.2v13.1c0,0.8,0.1,1.3,0.2,1.6c0.1,0.3,0.4,0.5,0.8,0.5c0.5,0,1.1-0.3,1.7-0.8l0.5,0.8
                            c-1.4,1.2-3.2,1.8-5.3,1.8c-1.8,0-3-0.4-3.7-1.1c-0.7-0.7-1.1-1.6-1.1-2.8c-1.6,2.6-4,3.9-7.1,3.9C65.4,34.2,63.9,33.7,62.9,32.6"></path>
                        <path class="svc" d="M152.7,8.8c1,0.3,1.8,0.7,2.4,1c0.3,0.2,0.6,0.3,0.9,0.3c0.3,0,0.5-0.2,0.7-0.5c0.2-0.3,0.3-0.7,0.4-1.3h0.8v8.5h-1
                            c-0.3-2.1-0.9-3.9-1.9-5.3c-1-1.4-2.4-2.1-4.2-2.1c-1,0-1.8,0.3-2.4,0.8c-0.6,0.5-0.9,1.3-0.9,2.3c0,1.1,0.4,2,1.1,2.8
                            c0.7,0.8,1.9,1.7,3.5,2.9l1.4,1c2,1.5,3.4,2.8,4.3,3.9c0.9,1.2,1.4,2.6,1.4,4.3c0,1.4-0.4,2.7-1.2,3.7c-0.8,1.1-1.9,1.9-3.3,2.5
                            c-1.4,0.6-2.9,0.9-4.6,0.9c-1.8,0-3.3-0.3-4.5-1c-1-0.5-1.8-0.8-2.2-1c-0.3-0.1-0.6,0-0.8,0.3c-0.2,0.3-0.4,0.8-0.6,1.4h-1v-9.6
                            h1.2c0.6,5.9,2.8,8.8,6.5,8.8c0.9,0,1.7-0.3,2.4-0.8c0.7-0.6,1-1.4,1-2.6c0-0.9-0.2-1.7-0.6-2.4c-0.4-0.7-0.9-1.3-1.5-1.9
                            c-0.6-0.5-1.5-1.3-2.7-2.3c-1.4-1.2-2.5-2.1-3.3-2.8c-0.8-0.7-1.4-1.5-1.9-2.5s-0.8-2-0.8-3.2c0-2.1,0.8-3.7,2.4-4.9
                            c1.6-1.2,3.6-1.8,5.9-1.8C150.5,8.4,151.7,8.5,152.7,8.8"></path>
                        <g>
                            <path class="st00" d="M6.5,48.6l-1.7-3.9l-1.7,3.9H6.5z M7.1,50H2.6L1.7,52H0l4-9h1.6l4.1,9H8L7.1,50z"></path>
                            <polygon class="st00" points="24.4,43.1 20.5,52 18.9,52 14.9,43.1 16.7,43.1 19.7,50 22.8,43.1        "></polygon>
                            <path class="st00" d="M37.6,47.5c0-1.8-1.3-3.2-3.2-3.2c-1.8,0-3.2,1.3-3.2,3.2c0,1.8,1.3,3.2,3.2,3.2
                                C36.3,50.7,37.6,49.4,37.6,47.5 M29.6,47.5c0-2.7,2.1-4.6,4.8-4.6c2.8,0,4.8,2,4.8,4.6s-2.1,4.6-4.8,4.6
                                C31.7,52.2,29.6,50.2,29.6,47.5"></path>
                            <path class="st00" d="M45.1,47.5c0-2.7,2.1-4.6,4.8-4.6c1.5,0,2.7,0.5,3.6,1.5l-1.1,1c-0.7-0.7-1.5-1.1-2.4-1.1
                                c-1.9,0-3.2,1.3-3.2,3.2s1.3,3.2,3.2,3.2c0.9,0,1.7-0.3,2.4-1.1l1.1,1c-0.8,1-2.1,1.5-3.6,1.5C47.2,52.2,45.1,50.2,45.1,47.5"></path>
                            <path class="st00" d="M65.8,48.6l-1.7-3.9l-1.7,3.9H65.8z M66.3,50h-4.5L60.9,52h-1.7l4-9h1.6l4.1,9h-1.7L66.3,50z"></path>
                            <polygon class="st00" points="78.1,44.5 75.1,44.5 75.1,43.1 82.7,43.1 82.7,44.5 79.7,44.5 79.7,52 78.1,52        "></polygon>
                            <path class="st00" d="M90.1,51.1l0.6-1.3c0.7,0.6,1.9,1,3,1c1.4,0,2-0.5,2-1.2c0-1.9-5.3-0.7-5.3-4c0-1.4,1.2-2.7,3.6-2.7
                                c1.1,0,2.2,0.3,3,0.8L96.4,45c-0.8-0.5-1.7-0.7-2.5-0.7c-1.4,0-2,0.5-2,1.2c0,1.9,5.3,0.7,5.3,4c0,1.4-1.2,2.7-3.6,2.7
                                C92.3,52.2,90.8,51.7,90.1,51.1"></path>
                        </g>
                        <path class="svc" d="M94.2,29.4c0,1.3,0.2,2.2,0.7,2.7c0.4,0.5,1.3,0.7,2.4,0.7v1h-10V5.3c0-1.5-0.2-2.3-0.7-3c-0.5-0.7-1.3-1-2.4-1V0h10
                            L94.2,29.4L94.2,29.4z"></path>
                        <path class="svc" d="M131.7,8v2c2.4,0.2,3.6,1.5,3.6,3.8c0,1.1-0.3,2.3-0.8,3.8l-3.3,9.2l-5.9-14.2c-0.2-0.5-0.3-1-0.3-1.3c0-0.6,0.2-1,0.7-1.1
                            c0.5-0.1,1.3-0.2,2.3-0.2V8h-16l0,0h-3.1V0h-6.8v8h-5.2v2h1h0.9c1.7,0,3.1,1.4,3.1,3.1v13.1c0,1.8,0.1,3.1,0.4,4.2
                            c0.2,1,0.7,1.8,1.4,2.5c1.1,1.1,2.7,1.6,4.8,1.6c3.2,0,5.4-1.6,6.6-4.9l-0.8-0.4c-0.8,1.9-1.9,2.9-3.3,2.9c-0.7,0-1.3-0.2-1.6-0.6
                            c-0.3-0.4-0.5-1.1-0.5-2V13.2c0-1.7,1.3-3.1,3-3.1l2.8,0c0.5,0,1,0.2,1.5,0.5c0.5,0.4,1,1.1,1.5,2.2l10.2,23.1l-0.8,2.3
                            c-0.9,2.5-2.4,3.8-4.4,3.8c-0.5,0-5.6-0.7-4.5-0.1c1.1,0.7,2.3,1,3.6,1c1.9,0,3.3-0.4,4.2-1.2c0.8-0.6,1.5-1.7,2.1-3.4l8.6-24.2
                            c0.5-1.3,1-2.3,1.5-2.9c0.5-0.6,1.1-1,1.8-1.2V8L131.7,8L131.7,8z"></path>
                        <path class="st00" d="M124.7,38.2c0,2.4-1.9,4.3-4.3,4.3c-2.4,0-4.3-1.9-4.3-4.3c0-2.4,1.9-4.3,4.3-4.3
                            C122.8,33.9,124.7,35.8,124.7,38.2"></path>
                        <g class="std-12">
                            <path class="st00" d="M173.6,4.5c0.1-2-1.5-3.7-3.6-3.8c-0.1,0-0.1,0-0.2,0c-2.1,0-3.9,1.7-3.9,3.8c0,2.1,1.7,3.9,3.8,3.9
                                C171.8,8.4,173.5,6.7,173.6,4.5C173.6,4.6,173.6,4.5,173.6,4.5z M174.3,4.5c0,2.5-2,4.6-4.5,4.6c-2.5,0-4.6-2-4.6-4.5
                                c0-2.5,2-4.6,4.5-4.6c0,0,0,0,0,0c2.4-0.1,4.5,1.9,4.5,4.3C174.3,4.4,174.3,4.5,174.3,4.5"></path>
                            <g>
                                <path class="st00" d="M169.3,7.4V5.6l-1.7-3.3h1l1.1,2.3l1.1-2.3h1l-1.7,3.3v1.8H169.3z"></path>
                            </g>
                        </g>
                    </g>
            </svg>