<svg id="Calque_1" data-name="Calque 1" xmlns="http://www.w3.org/2000/svg" viewBox="0 0 107.47 119.61"><rect x="62.82" y="38.61" width="4.6" height="27.61" transform="translate(-17.99 61.4) rotate(-45)"/><rect x="69.33" y="32.1" width="4.6" height="27.61" transform="translate(-11.48 64.1) rotate(-45)"/><rect x="33.54" y="9.32" width="4.6" height="27.61" transform="translate(-5.86 32.11) rotate(-45)"/><rect x="40.05" y="2.81" width="4.6" height="27.61" transform="translate(0.65 34.81) rotate(-45)"/><rect x="51.32" y="14.32" width="27.61" height="4.6" transform="translate(7.32 50.92) rotate(-45)"/><rect x="57.83" y="20.82" width="27.61" height="4.6" transform="translate(4.63 57.43) rotate(-45)"/><rect x="22.03" y="43.6" width="27.61" height="4.6" transform="translate(-21.96 38.79) rotate(-45)"/><rect x="28.54" y="50.11" width="27.61" height="4.6" transform="translate(-24.66 45.29) rotate(-45)"/><rect x="46.83" width="4.6" height="13.81"/><rect x="56.04" width="4.6" height="13.81"/><rect x="46.83" y="55.22" width="4.6" height="13.81"/><rect x="56.04" y="55.22" width="4.6" height="13.81"/><rect x="74.44" y="27.61" width="13.81" height="4.6"/><rect x="74.44" y="36.82" width="13.81" height="4.6"/><rect x="19.22" y="27.61" width="13.81" height="4.6"/><rect x="19.22" y="36.82" width="13.81" height="4.6"/><path d="M101.8,110.9s0,0,0,0,0,0,0,0m-2.94,5.16-1.38.56a5.54,5.54,0,0,0,5.3,3c2.85,0,4.57-1.66,4.57-3.65s-1.14-3.08-4.2-3.75l-.21,0c-1.73-.37-2.17-.63-2.17-1.26s.61-1,1.68-1a2.35,2.35,0,0,1,2.34,1.56l1.35-.49,1.33-.53c-.61-2-2.36-3-5-3-3.06,0-4.65,1.75-4.65,3.64,0,2.1,1.45,3.11,4.14,3.74l.3.07c1.8.42,2.08.63,2.08,1.19s-.66,1-1.66,1a2.79,2.79,0,0,1-2.55-1.56Zm-11.25-3.69a2.61,2.61,0,0,1,2.75-2.12,2.47,2.47,0,0,1,2.5,2.12Zm8.31.84a5.45,5.45,0,0,0-5.65-5.79,5.72,5.72,0,0,0-5.82,6c0,3.41,2.2,6.14,5.82,6.14A6.21,6.21,0,0,0,95.64,117l-2.27-1.63a3.5,3.5,0,0,1-2.92,1.49,2.83,2.83,0,0,1-2.89-2.36h8.29a8.1,8.1,0,0,0,.07-1.28m-24.56,6.14h3.08v-7.73a2.71,2.71,0,0,1,2.43-1.33,2.3,2.3,0,0,1,2.4,2.45v6.61h3v-6.61a4.93,4.93,0,0,0-5.32-5.3,4.64,4.64,0,0,0-2.55.68v-.44H71.36Zm-13.63,0h3.08v-7.73a2.71,2.71,0,0,1,2.43-1.33,2.31,2.31,0,0,1,2.4,2.45v6.61h3v-6.61a4.94,4.94,0,0,0-5.33-5.3,4.63,4.63,0,0,0-2.54.68v-.44H57.73Zm-10.58-7a2.63,2.63,0,0,1,2.76-2.12,2.47,2.47,0,0,1,2.5,2.12Zm8.31.84a5.45,5.45,0,0,0-5.65-5.79,5.72,5.72,0,0,0-5.81,6c0,3.41,2.2,6.14,5.81,6.14A6.19,6.19,0,0,0,55.18,117l-2.26-1.63A3.5,3.5,0,0,1,50,116.85a2.82,2.82,0,0,1-2.89-2.36h8.28a8.1,8.1,0,0,0,.07-1.28m-20.05-2.5v-4h1.47c1.47,0,2.45.8,2.48,2,0,1.38-1,2-2.48,2Zm-3.08,8.64h3.08v-5.72h1.43l2.68,5.72h3.22l-3-6.26a4.94,4.94,0,0,0,2.64-4.41v0a5,5,0,0,0-5-4.9h-5Z"/><path d="M100.21,82h3.08l2.34-3.87h-3.32Zm-1,6.31a2.63,2.63,0,0,1,2.76-2.13,2.47,2.47,0,0,1,2.49,2.13Zm8.31.84a5.45,5.45,0,0,0-5.65-5.79,5.7,5.7,0,0,0-5.81,6c0,3.41,2.19,6.14,5.81,6.14a6.23,6.23,0,0,0,5.37-2.61l-2.26-1.63A3.51,3.51,0,0,1,102,92.8a2.83,2.83,0,0,1-2.9-2.36h8.29a8.16,8.16,0,0,0,.07-1.28M88.82,95.3h3V86.45h3.24V83.63H91.81V80.08h-3v3.55H86.49v2.82h2.33ZM81.49,81.41h3.08V78.23H81.49Zm.05,13.89h3V83.63h-3Zm-8.06-8.45s0,0,0,0,0,0,0,0M70.54,92l-1.37.56a5.53,5.53,0,0,0,5.29,3c2.85,0,4.58-1.65,4.58-3.64s-1.14-3.08-4.2-3.76l-.21,0c-1.73-.38-2.17-.63-2.17-1.26s.6-1,1.68-1a2.33,2.33,0,0,1,2.33,1.56l1.36-.49,1.33-.54c-.61-2-2.36-3-5-3-3.05,0-4.64,1.75-4.64,3.64,0,2.1,1.45,3.1,4.13,3.74l.3.07c1.8.42,2.08.63,2.08,1.19s-.65,1-1.66,1a2.78,2.78,0,0,1-2.54-1.56ZM61.18,95.3h3.13V87.55l3.59-1.4v-3l-3.59,1.38v-.86H61.18Zm-10.62-7a2.63,2.63,0,0,1,2.76-2.13,2.47,2.47,0,0,1,2.49,2.13Zm8.31.84a5.45,5.45,0,0,0-5.65-5.79,5.7,5.7,0,0,0-5.81,6c0,3.41,2.19,6.14,5.81,6.14a6.23,6.23,0,0,0,5.37-2.61l-2.26-1.63a3.51,3.51,0,0,1-2.92,1.49,2.83,2.83,0,0,1-2.9-2.36H58.8a8.16,8.16,0,0,0,.07-1.28M42.06,95.3l4.39-11.67h-3.2l-2.87,7.63-3.05-7.63h-3.2L38.87,95.3ZM29.27,81.41h3.08V78.23H29.27Zm.05,13.89h3V83.63h-3Zm-13.73,0h3.08V87.57a2.71,2.71,0,0,1,2.43-1.33,2.3,2.3,0,0,1,2.41,2.45V95.3h3V88.69a4.93,4.93,0,0,0-5.32-5.3,4.68,4.68,0,0,0-2.55.68v-.44H15.59ZM0,79.7v9.41c0,3.83,2.43,6.42,6.33,6.42s6.35-2.59,6.35-6.42V79.7H9.59v9.41A3.06,3.06,0,0,1,6.33,92.5a3.05,3.05,0,0,1-3.25-3.39V79.7Z"/><path d="M16.83,112.37a2.63,2.63,0,0,1,2.75-2.12,2.46,2.46,0,0,1,2.5,2.12Zm8.31.84a5.45,5.45,0,0,0-5.65-5.79,5.71,5.71,0,0,0-5.81,6c0,3.41,2.19,6.14,5.81,6.14A6.21,6.21,0,0,0,24.86,117l-2.26-1.63a3.51,3.51,0,0,1-2.92,1.49,2.83,2.83,0,0,1-2.9-2.36h8.29a8.1,8.1,0,0,0,.07-1.28m-22.06.3a3.09,3.09,0,0,1,3.25-3.24,4.48,4.48,0,0,1,2.35.75v4.8a3.22,3.22,0,0,1-2.4.94,3.09,3.09,0,0,1-3.2-3.25m5.6,5.84h3.13V102.19H8.68V108a6.9,6.9,0,0,0-2.7-.58,5.86,5.86,0,0,0-6,6.09,5.76,5.76,0,0,0,6,6.1,5,5,0,0,0,2.7-.75Z"/></svg>